<svg width="24" height="25" viewBox="0 0 24 25" fill="none" xmlns="http://www.w3.org/2000/svg">
<path fill-rule="evenodd" clip-rule="evenodd" d="M13.5 2.5C8.80558 2.5 5 6.30558 5 11C5 12.8588 5.59662 14.5782 6.60881 15.9772L2.31802 20.2678L3.73223 21.682L7.96406 17.4503C9.45135 18.7279 11.3855 19.5 13.5 19.5C18.1944 19.5 22 15.6944 22 11C22 6.30558 18.1944 2.5 13.5 2.5ZM13.5 4.5C17.0899 4.5 20 7.41015 20 11C20 14.5899 17.0899 17.5 13.5 17.5C9.91015 17.5 7 14.5899 7 11C7 7.41015 9.91015 4.5 13.5 4.5Z" fill="#FE8D1D"/>
</svg>
